<svg width="245" height="34" viewBox="0 0 245 34" fill="none" xmlns="http://www.w3.org/2000/svg">
<path d="M4.125 21.3203V32.6289H0.21875V2.375H8.8125C12.0807 2.375 14.6133 3.16276 16.4102 4.73828C18.2201 6.3138 19.125 8.56641 19.125 11.4961C19.125 14.4648 18.0703 16.8737 15.9609 18.7227C13.8516 20.5586 11.2148 21.4245 8.05078 21.3203H4.125ZM4.125 5.8125V17.8828H7.73828C10.1211 17.8828 11.931 17.349 13.168 16.2812C14.4049 15.2005 15.0234 13.6576 15.0234 11.6523C15.0234 7.75911 12.7188 5.8125 8.10938 5.8125H4.125ZM22.7773 22.0625C22.7773 18.4948 23.7734 15.6823 25.7656 13.625C27.7578 11.5547 30.4596 10.5195 33.8711 10.5195C37.1133 10.5195 39.6523 11.5156 41.4883 13.5078C43.3372 15.487 44.2617 18.2279 44.2617 21.7305C44.2617 25.1419 43.2786 27.8958 41.3125 29.9922C39.3464 32.0885 36.7096 33.1367 33.4023 33.1367C30.1732 33.1367 27.5951 32.1211 25.668 30.0898C23.7409 28.0586 22.7773 25.3828 22.7773 22.0625ZM26.6836 21.9453C26.6836 24.4323 27.3086 26.3919 28.5586 27.8242C29.8216 29.2565 31.5143 29.9727 33.6367 29.9727C35.8242 29.9727 37.4909 29.276 38.6367 27.8828C39.7826 26.4766 40.3555 24.4648 40.3555 21.8477C40.3555 19.2174 39.7826 17.1992 38.6367 15.793C37.4909 14.3867 35.8242 13.6836 33.6367 13.6836C31.4883 13.6836 29.7891 14.4193 28.5391 15.8906C27.3021 17.362 26.6836 19.3802 26.6836 21.9453ZM61.2344 14.8164C60.5964 14.3607 59.7174 14.1328 58.5977 14.1328C57.1133 14.1328 55.8893 14.8294 54.9258 16.2227C53.9622 17.6029 53.4805 19.4258 53.4805 21.6914V32.6289H49.6523V11.0273H53.4805V15.4219H53.5586C54.6523 12.2448 56.5404 10.6562 59.2227 10.6562C60.0951 10.6562 60.7656 10.7539 61.2344 10.9492V14.8164ZM75.2969 32.4141C74.4635 32.8698 73.3372 33.0977 71.918 33.0977C68.0508 33.0977 66.1172 30.9557 66.1172 26.6719V14.1914H62.4062V11.0273H66.1172V5.83203L69.9258 4.62109V11.0273H75.2969V14.1914H69.9258V25.9883C69.9258 27.4076 70.1667 28.4232 70.6484 29.0352C71.1302 29.6471 71.931 29.9531 73.0508 29.9531C73.9102 29.9531 74.6589 29.7122 75.2969 29.2305V32.4141ZM90.9219 3.91797C90.2057 3.54036 89.431 3.35156 88.5977 3.35156C86.2018 3.35156 85.0039 4.83594 85.0039 7.80469V11.0273H90.0625V14.1914H85.0039V32.6289H81.2148V14.1914H77.5234V11.0273H81.2148V7.62891C81.2148 5.3112 81.8789 3.49479 83.207 2.17969C84.5482 0.851562 86.2474 0.1875 88.3047 0.1875C89.3984 0.1875 90.2708 0.311198 90.9219 0.558594V3.91797ZM92.2695 22.0625C92.2695 18.4948 93.2656 15.6823 95.2578 13.625C97.25 11.5547 99.9518 10.5195 103.363 10.5195C106.605 10.5195 109.145 11.5156 110.98 13.5078C112.829 15.487 113.754 18.2279 113.754 21.7305C113.754 25.1419 112.771 27.8958 110.805 29.9922C108.839 32.0885 106.202 33.1367 102.895 33.1367C99.6654 33.1367 97.0872 32.1211 95.1602 30.0898C93.2331 28.0586 92.2695 25.3828 92.2695 22.0625ZM96.1758 21.9453C96.1758 24.4323 96.8008 26.3919 98.0508 27.8242C99.3138 29.2565 101.007 29.9727 103.129 29.9727C105.316 29.9727 106.983 29.276 108.129 27.8828C109.275 26.4766 109.848 24.4648 109.848 21.8477C109.848 19.2174 109.275 17.1992 108.129 15.793C106.983 14.3867 105.316 13.6836 103.129 13.6836C100.98 13.6836 99.2812 14.4193 98.0312 15.8906C96.7943 17.362 96.1758 19.3802 96.1758 21.9453ZM119.125 32.6289V0.65625H122.953V32.6289H119.125ZM129.34 3.41016C129.34 2.73307 129.568 2.16667 130.023 1.71094C130.492 1.24219 131.065 1.00781 131.742 1.00781C132.432 1.00781 133.012 1.23568 133.48 1.69141C133.962 2.14714 134.203 2.72005 134.203 3.41016C134.203 4.08724 133.962 4.65365 133.48 5.10938C133.012 5.55208 132.432 5.77344 131.742 5.77344C131.052 5.77344 130.479 5.55208 130.023 5.10938C129.568 4.65365 129.34 4.08724 129.34 3.41016ZM129.789 32.6289V11.0273H133.617V32.6289H129.789ZM139.027 22.0625C139.027 18.4948 140.023 15.6823 142.016 13.625C144.008 11.5547 146.71 10.5195 150.121 10.5195C153.363 10.5195 155.902 11.5156 157.738 13.5078C159.587 15.487 160.512 18.2279 160.512 21.7305C160.512 25.1419 159.529 27.8958 157.562 29.9922C155.596 32.0885 152.96 33.1367 149.652 33.1367C146.423 33.1367 143.845 32.1211 141.918 30.0898C139.991 28.0586 139.027 25.3828 139.027 22.0625ZM142.934 21.9453C142.934 24.4323 143.559 26.3919 144.809 27.8242C146.072 29.2565 147.764 29.9727 149.887 29.9727C152.074 29.9727 153.741 29.276 154.887 27.8828C156.033 26.4766 156.605 24.4648 156.605 21.8477C156.605 19.2174 156.033 17.1992 154.887 15.793C153.741 14.3867 152.074 13.6836 149.887 13.6836C147.738 13.6836 146.039 14.4193 144.789 15.8906C143.552 17.362 142.934 19.3802 142.934 21.9453ZM176.82 26.9453C177.745 27.7526 178.982 28.4167 180.531 28.9375C182.081 29.4583 183.552 29.7188 184.945 29.7188C189.19 29.7188 191.312 28.2083 191.312 25.1875C191.312 24.3411 191.085 23.5794 190.629 22.9023C190.173 22.2253 189.548 21.6263 188.754 21.1055C187.96 20.5846 186.469 19.7839 184.281 18.7031C181.247 17.1927 179.249 15.793 178.285 14.5039C177.322 13.2018 176.84 11.7174 176.84 10.0508C176.84 7.53776 177.849 5.54557 179.867 4.07422C181.885 2.60286 184.431 1.86719 187.504 1.86719C190.512 1.86719 192.719 2.23177 194.125 2.96094V7.21875C192.302 5.95573 189.997 5.32422 187.211 5.32422C185.362 5.32422 183.852 5.71484 182.68 6.49609C181.521 7.26432 180.941 8.33854 180.941 9.71875C180.941 10.9427 181.345 11.9388 182.152 12.707C182.96 13.4753 184.711 14.5234 187.406 15.8516C190.375 17.2708 192.452 18.6901 193.637 20.1094C194.822 21.5286 195.414 23.1237 195.414 24.8945C195.414 27.5508 194.451 29.5885 192.523 31.0078C190.596 32.4271 187.921 33.1367 184.496 33.1367C183.298 33.1367 181.898 32.9674 180.297 32.6289C178.708 32.3034 177.549 31.8932 176.82 31.3984V26.9453ZM200.355 3.41016C200.355 2.73307 200.583 2.16667 201.039 1.71094C201.508 1.24219 202.081 1.00781 202.758 1.00781C203.448 1.00781 204.027 1.23568 204.496 1.69141C204.978 2.14714 205.219 2.72005 205.219 3.41016C205.219 4.08724 204.978 4.65365 204.496 5.10938C204.027 5.55208 203.448 5.77344 202.758 5.77344C202.068 5.77344 201.495 5.55208 201.039 5.10938C200.583 4.65365 200.355 4.08724 200.355 3.41016ZM200.805 32.6289V11.0273H204.633V32.6289H200.805ZM221.859 32.4141C221.026 32.8698 219.9 33.0977 218.48 33.0977C214.613 33.0977 212.68 30.9557 212.68 26.6719V14.1914H208.969V11.0273H212.68V5.83203L216.488 4.62109V11.0273H221.859V14.1914H216.488V25.9883C216.488 27.4076 216.729 28.4232 217.211 29.0352C217.693 29.6471 218.493 29.9531 219.613 29.9531C220.473 29.9531 221.221 29.7122 221.859 29.2305V32.4141ZM244.008 22.8047H228.891C228.956 25.1094 229.587 26.8932 230.785 28.1562C231.983 29.4062 233.656 30.0312 235.805 30.0312C238.227 30.0312 240.447 29.2565 242.465 27.707V31.125C240.564 32.4661 238.044 33.1367 234.906 33.1367C231.781 33.1367 229.34 32.1471 227.582 30.168C225.837 28.1888 224.965 25.4414 224.965 21.9258C224.965 18.6185 225.922 15.8906 227.836 13.7422C229.763 11.5938 232.152 10.5195 235.004 10.5195C237.829 10.5195 240.036 11.431 241.625 13.2539C243.214 15.0638 244.008 17.6029 244.008 20.8711V22.8047ZM240.18 19.7383C240.167 17.7852 239.704 16.2747 238.793 15.207C237.882 14.1393 236.599 13.6055 234.945 13.6055C233.422 13.6055 232.1 14.1719 230.98 15.3047C229.874 16.4375 229.177 17.9154 228.891 19.7383H240.18Z" fill="black"/>
</svg>
